HIERARCHY
ROOT RootJoint
{
    OFFSET   0.000000   0.000000   0.000000
    CHANNELS 6 Xposition Yposition Zposition Xrotation Yrotation Zrotation
    JOINT pelvis_lowerback
    {
        OFFSET   0.000000   0.093605   0.000000
        CHANNELS 3 Xrotation Yrotation Zrotation
        JOINT lowerback_torso
        {
            OFFSET   0.000000   0.100000   0.000000
            CHANNELS 3 Xrotation Yrotation Zrotation
            JOINT torso_head
            {
                OFFSET   0.000000   0.282350   0.000000
                CHANNELS 3 Xrotation Yrotation Zrotation
                End Site
                {
                    OFFSET   0.000000   0.192650   0.000000
                }
            }
            JOINT rTorso_Clavicle
            {
                OFFSET  -0.001000   0.157500   0.000000
                CHANNELS 3 Xrotation Yrotation Zrotation
                JOINT rShoulder
                {
                    OFFSET  -0.117647   0.000000   0.000000
                    CHANNELS 3 Xrotation Yrotation Zrotation
                    JOINT rElbow
                    {
                        OFFSET  -0.245000   0.000000   0.000000
                        CHANNELS 3 Xrotation Yrotation Zrotation
                        JOINT rWrist
                        {
                            OFFSET  -0.240000   0.000000   0.000000
                            CHANNELS 3 Xrotation Yrotation Zrotation
                            End Site
                            {
                                OFFSET  -0.116353  -0.002500   0.000000
                            }
                        }
                    }
                }
            }
            JOINT lTorso_Clavicle
            {
                OFFSET   0.001000   0.157500   0.000000
                CHANNELS 3 Xrotation Yrotation Zrotation
                JOINT lShoulder
                {
                    OFFSET   0.117647   0.000000   0.000000
                    CHANNELS 3 Xrotation Yrotation Zrotation
                    JOINT lElbow
                    {
                        OFFSET   0.245000   0.000000   0.000000
                        CHANNELS 3 Xrotation Yrotation Zrotation
                        JOINT lWrist
                        {
                            OFFSET   0.240000   0.000000   0.000000
                            CHANNELS 3 Xrotation Yrotation Zrotation
                            End Site
                            {
                                OFFSET   0.116353  -0.002500   0.000000
                            }
                        }
                    }
                }
            }
        }
    }
    JOINT rHip
    {
        OFFSET  -0.100000  -0.051395   0.000000
        CHANNELS 3 Xrotation Yrotation Zrotation
        JOINT rKnee
        {
            OFFSET   0.000000  -0.410000   0.000000
            CHANNELS 3 Xrotation Yrotation Zrotation
            JOINT rAnkle
            {
                OFFSET   0.000000  -0.390000   0.000000
                CHANNELS 3 Xrotation Yrotation Zrotation
                JOINT rToeJoint
                {
                    OFFSET   0.000000  -0.050000   0.130000
                    CHANNELS 3 Xrotation Yrotation Zrotation
                    End Site
                    {
                        OFFSET  -0.010000   0.002000   0.060000
                    }
                }
            }
        }
    }
    JOINT lHip
    {
        OFFSET   0.100000  -0.051395   0.000000
        CHANNELS 3 Xrotation Yrotation Zrotation
        JOINT lKnee
        {
            OFFSET   0.000000  -0.410000   0.000000
            CHANNELS 3 Xrotation Yrotation Zrotation
            JOINT lAnkle
            {
                OFFSET   0.000000  -0.390000   0.000000
                CHANNELS 3 Xrotation Yrotation Zrotation
                JOINT lToeJoint
                {
                    OFFSET   0.000000  -0.050000   0.130000
                    CHANNELS 3 Xrotation Yrotation Zrotation
                    End Site
                    {
                        OFFSET   0.010000   0.002000   0.060000
                    }
                }
            }
        }
    }
}
MOTION
Frames: 10
Frame Time:   0.008333
 -2.366882   0.903536   4.668141  -1.125704   2.596712  -0.292516   5.569345  -2.151076  -2.903367   0.634227  -1.788546   1.763234  -1.355456   0.173758   2.570646   2.154323  -1.660135   8.357530   7.086260  10.525686  47.772989  -0.000454  18.624215   0.001229   6.658477   3.245654   4.300258   0.345223  -1.470923  -6.898069   3.620249 -17.146950 -46.076360   0.000176 -18.170415  -0.000206   8.232001  -4.533360  -2.466549 -22.979739   1.147008  -6.369944  18.923797  -0.002719  -0.013972  -5.797953  -5.465007   5.412006  -1.565573  -0.000228   0.000577   5.663709  -3.078585  -1.666543  13.172255   0.000004  -0.000220 -16.556804  -5.086485   2.328328  -1.410628   0.000025  -0.000013
 -2.367766   0.902647   4.673500  -1.143893   2.826512  -0.235575   5.614136  -2.190795  -2.910876   0.664492  -1.803620   1.705415  -1.354103   0.126171   2.481068   2.187277  -1.718248   8.382469   7.187845  10.380276  47.778171  -0.000482  18.298157   0.001300   6.637869   3.272928   4.324780   0.392390  -1.437174  -6.909144   3.676732 -17.211005 -46.126780   0.000136 -18.166534  -0.000163   8.244004  -4.543893  -2.506998 -23.090789   1.191703  -6.489972  17.660966  -0.002458  -0.013571  -5.617494  -5.418813   5.456212  -1.556494  -0.000193   0.000492   6.046147  -3.143284  -1.604610  13.171230   0.000003  -0.000178 -16.851397  -5.252360   2.267143  -1.524402   0.000038  -0.000016
 -2.368666   0.901698   4.678928  -1.160563   3.051184  -0.167180   5.653669  -2.225257  -2.918708   0.697476  -1.818625   1.648049  -1.355422   0.080818   2.394767   2.229638  -1.781932   8.406752   7.293431  10.234221  47.780394  -0.000529  17.984532   0.001356   6.621482   3.249394   4.349239   0.444414  -1.399488  -6.922130   3.735719 -17.266736 -46.176604   0.000101 -18.159859  -0.000128   8.258352  -4.541526  -2.565311 -23.204846   1.239701  -6.628001  16.475542  -0.002263  -0.013015  -5.448844  -5.375514   5.497056  -1.544578  -0.000167   0.000431   6.428445  -3.214979  -1.548315  13.176866   0.000001  -0.000133 -17.157854  -5.413225   2.169276  -1.614052   0.000020  -0.000013
 -2.369619   0.900709   4.684411  -1.171872   3.284573  -0.096733   5.688857  -2.262297  -2.923748   0.731560  -1.836947   1.596052  -1.357573   0.038367   2.314535   2.277337  -1.849431   8.430736   7.398827  10.091773  47.783051  -0.000585  17.687989   0.001400   6.607561   3.201756   4.376080   0.497547  -1.360225  -6.936234   3.794445 -17.315810 -46.224180   0.000073 -18.151742  -0.000099   8.272634  -4.529364  -2.628754 -23.320370   1.286972  -6.771707  15.366616  -0.002073  -0.012496  -5.291626  -5.335294   5.534779  -1.534291  -0.000143   0.000378   6.803522  -3.272858  -1.492964  13.189033  -0.000003  -0.000085 -17.454272  -5.563774   2.119093  -1.751123   0.000056  -0.000047
 -2.370613   0.899698   4.689947  -1.177979   3.496967  -0.020230   5.720643  -2.290708  -2.930346   0.765568  -1.850369   1.546678  -1.359995  -0.000893   2.239634   2.325549  -1.915792   8.454846   7.500217   9.956191  47.786553  -0.000642  17.409433   0.001416   6.595287   3.144008   4.405227   0.551978  -1.318378  -6.950940   3.853257 -17.358116 -46.269067   0.000049 -18.142244  -0.000075   8.286545  -4.508586  -2.692972 -23.441342   1.335450  -6.914137  14.330416  -0.001836  -0.011762  -5.144917  -5.297477   5.569743  -1.524785  -0.000124   0.000330   7.174356  -3.343129  -1.436328  13.207753  -0.000010  -0.000040 -17.748094  -5.712514   2.025687  -1.906646   0.000038  -0.000038
 -2.371649   0.898673   4.695536  -1.176575   3.696491   0.059407   5.748552  -2.316088  -2.935252   0.798312  -1.861608   1.500940  -1.362555  -0.037500   2.169743   2.372626  -1.979995   8.478297   7.596506   9.828102  47.790552  -0.000694  17.148569   0.001409   6.583952   3.083156   4.435286   0.606339  -1.275864  -6.966038   3.910985 -17.395260 -46.311767   0.000030 -18.131988  -0.000056   8.300166  -4.481542  -2.757875 -23.564163   1.382400  -7.053197  13.361643  -0.001572  -0.010947  -5.008145  -5.262181   5.602147  -1.516831  -0.000106   0.000285   7.537080  -3.409198  -1.380371  13.232701  -0.000019   0.000005 -18.027393  -5.851873   1.932988  -2.093992   0.000024  -0.000030
 -2.372731   0.897636   4.701175  -1.166097   3.885004   0.141175   5.772234  -2.339061  -2.938397   0.828813  -1.871391   1.459293  -1.365202  -0.071678   2.104684   2.417782  -2.041437   8.501073   7.687295   9.707652  47.795048  -0.000740  16.904659   0.001385   6.573264   3.022419   4.465576   0.659477  -1.233849  -6.980917   3.966781 -17.428369 -46.352121   0.000015 -18.121479  -0.000041   8.313464  -4.450705  -2.822684 -23.686841   1.427759  -7.186853  12.456496  -0.001290  -0.010107  -4.880628  -5.229206   5.632202  -1.510293  -0.000091   0.000245   7.890191  -3.471959  -1.323832  13.263201  -0.000030   0.000047 -18.290863  -5.982739   1.840606  -2.314314   0.000013  -0.000024
 -2.373914   0.896576   4.706987  -1.177656   4.129462   0.203408   5.788252  -2.382947  -2.919639   0.879122  -1.893201   1.423949  -1.367259  -0.121395   2.024567   2.469206  -2.119128   8.524441   7.771182   9.576855  47.806281  -0.000858  16.559853   0.001432   6.583094   3.044247   4.514076   0.721581  -1.190576  -6.993339   4.052775 -17.515314 -46.396918  -0.000062 -18.047150  -0.000033   8.338649  -4.447154  -2.877330 -23.797957   1.395010  -7.299498  11.799011  -0.000891  -0.008981  -4.697842  -5.291740   5.593657  -1.497000  -0.000078   0.000213   8.258312  -3.575618  -1.223592  13.326059  -0.000060   0.000133 -18.576843  -6.123983   1.708447  -2.496028  -0.000035  -0.000020
 -2.375195   0.895493   4.712923  -1.184007   4.392355   0.263799   5.789843  -2.428333  -2.904100   0.928758  -1.920656   1.390903  -1.370997  -0.168238   1.948843   2.534351  -2.207256   8.550076   7.863871   9.442329  47.819230  -0.000945  16.228643   0.001472   6.596068   3.020336   4.575892   0.789417  -1.142420  -7.008516   4.140743 -17.591381 -46.442332  -0.000123 -17.973503  -0.000010   8.365792  -4.422695  -2.948698 -23.885081   1.358578  -7.397972  11.224425  -0.000503  -0.008069  -4.523900  -5.351768   5.557745  -1.475501  -0.000072   0.000201   8.621000  -3.677060  -1.113235  13.398237  -0.000089   0.000229 -18.840381  -6.271242   1.632741  -2.776922   0.000047  -0.000040
 -2.376539   0.894389   4.718946  -1.178538   4.641956   0.332598   5.780454  -2.465812  -2.897367   0.972755  -1.944776   1.354556  -1.376560  -0.211575   1.877420   2.604072  -2.298087   8.575304   7.957774   9.310459  47.832845  -0.000995  15.915649   0.001486   6.610526   2.973137   4.644001   0.860556  -1.089416  -7.025351   4.229029 -17.657287 -46.486657  -0.000169 -17.902006   0.000015   8.392244  -4.385572  -3.026484 -23.958954   1.324803  -7.486077  10.699734  -0.000137  -0.007224  -4.360781  -5.407595   5.524577  -1.453407  -0.000071   0.000189   8.973762  -3.784556  -1.002848  13.475366  -0.000123   0.000304 -19.094758  -6.410669   1.508758  -3.068991   0.000005  -0.000033
